<?xml version="1.0"?><svg xmlns="http://www.w3.org/2000/svg" width="1024" height="1024" viewBox="0 0 1024 1024" version="1.2" baseProfile="tiny-ps"><title>Armour Technologies</title><path d="M 510.906 204.428 C 510.252 205.081, 450.605 223.627, 413 234.869 C 359.914 250.739, 321.941 261.456, 270 275.227 L 257.500 278.541 257.206 372.520 C 257.037 426.373, 257.345 475.472, 257.926 487.513 C 260.029 531.108, 267.757 561.398, 286.496 599.500 C 308.001 643.224, 339.471 680.051, 389.294 719.797 C 416.232 741.286, 461.029 769.911, 505 793.732 L 512.500 797.795 525 790.812 C 596.843 750.676, 637.299 721.782, 676.578 682.555 C 694.790 664.367, 703.951 653.825, 714.564 638.840 C 740.535 602.174, 753.613 570.431, 763.116 521 C 765.864 506.705, 766.500 476.193, 766.500 358.611 L 766.500 278.721 738 270.973 C 685.585 256.724, 588.269 227.932, 533.345 210.425 C 513.288 204.031, 511.721 203.612, 510.906 204.428 M 488 250.611 C 435.188 267.241, 354.625 290.741, 311.500 302.097 C 303.250 304.269, 295.743 306.282, 294.818 306.569 C 293.254 307.055, 293.168 313.535, 293.598 399.296 C 293.853 450.008, 294.520 496.450, 295.082 502.500 C 298.642 540.866, 312.071 577.804, 334.989 612.273 C 346.590 629.721, 356.605 641.507, 374.731 659.042 C 399.602 683.101, 424.435 702.462, 459 724.741 C 475.688 735.498, 510.708 756, 512.392 756 C 513.224 756, 546.091 737.184, 553.846 732.268 C 595.705 705.735, 626.130 682.123, 652 656.093 C 674.765 633.187, 691.030 612.251, 701.890 591.873 C 714.215 568.747, 722.231 545.237, 727.249 517.500 C 729.355 505.862, 729.437 502.504, 729.960 406.221 L 730.500 306.942 726.559 305.881 C 687.590 295.390, 587.888 266.159, 532.344 248.939 C 521.809 245.672, 512.809 243.048, 512.344 243.106 C 511.880 243.164, 500.925 246.542, 488 250.611 M 483.128 311 L 477.756 311.500 473.836 320.500 C 471.680 325.450, 461.785 348.850, 451.847 372.500 C 441.909 396.150, 430.052 424.275, 425.497 435 C 396.981 502.151, 359.873 594.387, 358.389 601.806 C 357.859 604.454, 358.355 604.945, 366.663 610.004 C 371.523 612.964, 382.854 620.283, 391.841 626.268 C 400.829 632.254, 408.324 637.005, 408.497 636.826 C 408.671 636.646, 412.398 628.175, 416.781 618 C 426.709 594.948, 432.497 582.060, 440.248 565.750 L 446.307 553 511.903 553.024 L 577.500 553.047 579.836 558.274 C 606.447 617.824, 614 634.985, 614 635.900 C 614 636.505, 614.231 637, 614.514 637 C 615.876 637, 666 602.842, 666 601.914 C 666 600.073, 657.883 580.007, 638.731 534.500 C 628.546 510.300, 614.723 477.225, 608.013 461 C 601.303 444.775, 592.922 424.628, 589.388 416.228 C 585.854 407.828, 578.737 390.728, 573.572 378.228 C 559.697 344.648, 546.016 312.616, 545.200 311.800 C 544.358 310.958, 490.974 310.270, 483.128 311 M 508.701 394.792 C 500.059 413.569, 469.172 488.255, 466.638 496.500 C 466.030 498.480, 466.486 498.500, 511.512 498.500 C 536.530 498.500, 557 498.146, 557 497.712 C 557 496.129, 549.759 478.254, 534.147 441.300 C 525.364 420.510, 516.963 400.458, 515.479 396.741 C 513.995 393.024, 512.453 389.780, 512.054 389.533 C 511.654 389.286, 510.145 391.653, 508.701 394.792" stroke="none" fill="#007eba" fill-rule="evenodd"/></svg>
